<svg width="67" height="67" viewBox="0 0 67 67" fill="none" xmlns="http://www.w3.org/2000/svg">
<path fill-rule="evenodd" clip-rule="evenodd" d="M33.5 0C24.2456 0 16.75 7.49563 16.75 16.75C16.75 26.0044 24.2456 33.5 33.5 33.5C42.7544 33.5 50.25 26.0044 50.25 16.75C50.25 7.49563 42.7544 0 33.5 0ZM42.2937 16.75C42.2937 11.8925 38.3575 7.95625 33.5 7.95625C28.6425 7.95625 24.7062 11.8925 24.7062 16.75C24.7062 21.6075 28.6425 25.5437 33.5 25.5437C38.3575 25.5437 42.2937 21.6075 42.2937 16.75ZM59.0437 54.4375C59.0437 51.7575 45.9369 45.6437 33.5 45.6437C21.0631 45.6437 7.95623 51.7575 7.95623 54.4375V59.0437H59.0437V54.4375ZM0 54.4375C0 43.2987 22.3194 37.6875 33.5 37.6875C44.6806 37.6875 67 43.2987 67 54.4375V62.8125C67 65.1156 65.1156 67 62.8125 67H4.1875C1.88437 67 0 65.1156 0 62.8125V54.4375Z" fill="#F5F5F5"/>
</svg>
