<svg width="14" height="26" viewBox="0 0 14 26" fill="none" xmlns="http://www.w3.org/2000/svg">
<path fill-rule="evenodd" clip-rule="evenodd" d="M13.262 1.09635C13.3027 0.676229 13.0752 0.275816 12.6935 0.0956759C12.3118 -0.0844646 11.858 -0.00553824 11.5596 0.292922L1.59292 10.2596C1.42818 10.4243 1.32614 10.6414 1.30439 10.8734L0.00438946 24.74C-0.0353214 25.1636 0.197321 25.5659 0.584243 25.7428C0.971166 25.9197 1.42765 25.8324 1.72201 25.5253L11.6887 15.1253C11.8441 14.9631 11.9404 14.7533 11.962 14.5297L13.262 1.09635ZM2.26351 22.0697L3.26201 11.4189L11.0029 3.67808L10.0048 13.9919L2.26351 22.0697ZM6.80003 12.2667C6.80003 12.3587 6.72541 12.4334 6.63336 12.4334C6.54131 12.4334 6.46669 12.3587 6.46669 12.2667C6.46669 12.1747 6.54131 12.1 6.63336 12.1C6.72541 12.1 6.80003 12.1747 6.80003 12.2667ZM8.80003 12.2667C8.80003 13.4633 7.82998 14.4334 6.63336 14.4334C5.43674 14.4334 4.46669 13.4633 4.46669 12.2667C4.46669 11.0701 5.43674 10.1 6.63336 10.1C7.82998 10.1 8.80003 11.0701 8.80003 12.2667Z" fill="#596061"/>
</svg>
