<svg width="19" height="19" viewBox="0 0 19 19" fill="none" xmlns="http://www.w3.org/2000/svg">
<path fill-rule="evenodd" clip-rule="evenodd" d="M10.2202 1C10.2202 0.447715 9.77252 0 9.22023 0C8.66795 0 8.22023 0.447715 8.22023 1V8.22009L1 8.22009C0.447715 8.22009 0 8.66781 0 9.22009C0 9.77238 0.447715 10.2201 1 10.2201L8.22023 10.2201V17.4404C8.22023 17.9927 8.66795 18.4404 9.22023 18.4404C9.77252 18.4404 10.2202 17.9927 10.2202 17.4404V10.2201L17.4404 10.2201C17.9927 10.2201 18.4404 9.77237 18.4404 9.22009C18.4404 8.6678 17.9927 8.22009 17.4404 8.22009L10.2202 8.22009V1Z" fill="#596061"/>
</svg>
