<svg id="Layer_1" data-name="Layer 1" xmlns="http://www.w3.org/2000/svg" xmlns:xlink="http://www.w3.org/1999/xlink" viewBox="0 0 634.62 183"><defs><style>.cls-1{opacity:0.55;}.cls-2{fill:#f5f5f5;}.cls-3{fill:url(#linear-gradient);}</style><linearGradient id="linear-gradient" x1="593.44" y1="504.3" x2="703.68" y2="504.3" gradientUnits="userSpaceOnUse"><stop offset="0" stop-color="#f06449"/><stop offset="1" stop-color="#efad66"/></linearGradient></defs><g class="cls-1"><path class="cls-2" d="M225.49,500.5h-11.2v52.8h-31.6V411.5h56.2c28,0,46,19.2,46,44.4,0,19.2-10.6,33.8-28,40l28.8,57.4h-34.8Zm7.4-27.2c13,0,20-7.2,20-17.2,0-10.6-7-17.2-20-17.2h-18.6v34.4Z" transform="translate(-182.69 -408.5)"/><path class="cls-2" d="M394.49,524.7c-4.8,17.2-20.6,31.6-45.8,31.6-27.4,0-51.8-19.6-51.8-53,0-32,23.8-52.4,49.6-52.4,30.8,0,49.8,19,49.8,51a63.44,63.44,0,0,1-.6,9.4h-69.2c.6,11.2,10.8,19.2,22.6,19.2,11,0,17.2-5.2,20-13Zm-27.6-33c-.4-7.6-5.6-16.8-20-16.8-12.8,0-19.2,9.4-19.8,16.8Z" transform="translate(-182.69 -408.5)"/><path class="cls-2" d="M415.89,591.3V453.9h29.4v10.2c4.2-6.4,15-12.6,29.2-12.6,28.8,0,46.2,22,46.2,51.8,0,30.4-19.6,52.2-47.4,52.2-12.8,0-22.4-4.4-27-10v45.8Zm52.4-112.4c-11.8,0-22.4,8-22.4,24.6,0,16.4,10.6,24.8,22.4,24.8,12,0,22.6-8.2,22.6-24.8S480.29,478.9,468.29,478.9Z" transform="translate(-182.69 -408.5)"/><path class="cls-2" d="M540.29,553.3V408.5h30.4V553.3Z" transform="translate(-182.69 -408.5)"/></g><g class="cls-1"><path class="cls-2" d="M724.11,591.5l22.6-51.6-41.8-86h34l24.2,53.2,22-53.2h32.2l-61.2,137.6Z" transform="translate(-182.69 -408.5)"/></g><path class="cls-3" d="M697.89,494.22,611,443.88a11.6,11.6,0,0,0-17.42,10l-.1,100.77a11.6,11.6,0,0,0,17.42,10.05l87-50.43A11.6,11.6,0,0,0,697.89,494.22Z" transform="translate(-182.69 -408.5)"/></svg>