<svg width="18" height="18" viewBox="0 0 18 18" fill="none" xmlns="http://www.w3.org/2000/svg">
<path fill-rule="evenodd" clip-rule="evenodd" d="M9 0C6.51375 0 4.5 2.01375 4.5 4.5C4.5 6.98625 6.51375 9 9 9C11.4862 9 13.5 6.98625 13.5 4.5C13.5 2.01375 11.4862 0 9 0ZM11.3625 4.49999C11.3625 3.19499 10.305 2.13749 8.99999 2.13749C7.69499 2.13749 6.63749 3.19499 6.63749 4.49999C6.63749 5.80499 7.69499 6.86249 8.99999 6.86249C10.305 6.86249 11.3625 5.80499 11.3625 4.49999ZM15.8625 14.625C15.8625 13.905 12.3412 12.2625 8.99999 12.2625C5.65874 12.2625 2.13749 13.905 2.13749 14.625V15.8625H15.8625V14.625ZM0 14.625C0 11.6325 5.99625 10.125 9 10.125C12.0037 10.125 18 11.6325 18 14.625V16.875C18 17.4937 17.4937 18 16.875 18H1.125C0.50625 18 0 17.4937 0 16.875V14.625Z" fill="#596061"/>
</svg>
