<svg width="23" height="20" viewBox="0 0 23 20" fill="none" xmlns="http://www.w3.org/2000/svg">
<path d="M4 9.875V18C4 18.5523 4.44772 19 5 19H7.58333C8.13562 19 8.58333 18.5523 8.58333 18V16C8.58333 15.4477 9.03105 15 9.58333 15H12.5833C13.1356 15 13.5833 15.4477 13.5833 16V18C13.5833 18.5523 14.031 19 14.5833 19H17.1667C17.719 19 18.1667 18.5523 18.1667 18V9.875C18.1667 9.32272 18.6144 8.875 19.1667 8.875H20.3921C21.4061 8.875 21.7762 7.5397 20.9069 7.01768L11.4263 1.32488C11.0958 1.1264 10.6806 1.13562 10.3592 1.34858L1.76736 7.04138C0.941356 7.58868 1.32884 8.875 2.31971 8.875H3C3.55228 8.875 4 9.32272 4 9.875Z" stroke="#596061" stroke-width="2" stroke-linecap="round" stroke-linejoin="round"/>
</svg>
